<?xml version="1.0" encoding="UTF-8"?>
<svg width="278px" height="278px" viewBox="0 0 278 278" version="1.1" xmlns="http://www.w3.org/2000/svg" xmlns:xlink="http://www.w3.org/1999/xlink">
    <title>Building</title>
    <g id="Building" stroke="none" stroke-width="1" fill="none" fill-rule="evenodd">
        <g id="Group-4" transform="translate(-8.000000, 15.324868)">
            <path d="M131.5,102.63459 L131.5,245.175132 L66.5,245.175132 L66.5,133.587052 L131.5,102.63459 Z" id="Rectangle" stroke="#000000" stroke-width="5"></path>
            <path d="M230.5,84.8432143 L230.5,245.175132 L165.5,245.175132 L165.5,119.5349 L230.5,84.8432143 Z" id="Rectangle" stroke="#000000" stroke-width="5" transform="translate(198.000000, 164.175132) scale(-1, 1) translate(-198.000000, -164.175132) "></path>
            <rect id="Rectangle" fill="#000000" x="0" y="242.675132" width="134" height="5"></rect>
            <rect id="Rectangle" fill="#000000" x="163" y="242.675132" width="131" height="5"></rect>
            <polygon id="Rectangle" fill="#000000" points="93 27.6751325 98 27.6751325 98 100.373962 93 102.675132"></polygon>
            <rect id="Rectangle" fill="#000000" x="146" y="2.67513246" width="5" height="245"></rect>
            <polygon id="Rectangle" fill="#000000" transform="translate(200.500000, 57.175132) scale(-1, 1) translate(-200.500000, -57.175132) " points="198 27.6751325 203 27.6751325 203 83.5280467 198 86.6751325"></polygon>
            <polygon id="Rectangle" fill="#000000" transform="translate(122.203629, 16.067120) rotate(64.000000) translate(-122.203629, -16.067120) " points="119.470956 -14.9284834 124.962372 -12.0529726 124.72044 45.6944607 119.444886 47.062723"></polygon>
            <polygon id="Rectangle" fill="#000000" transform="translate(174.944743, 16.067120) scale(-1, 1) rotate(64.000000) translate(-174.944743, -16.067120) " points="172.21207 -14.9284834 177.703486 -12.0529726 177.461554 45.6944607 172.186 47.062723"></polygon>
        </g>
    </g>
</svg>